<?xml version="1.0" standalone="no"?>
<!DOCTYPE svg PUBLIC "-//W3C//DTD SVG 20010904//EN"
 "http://www.w3.org/TR/2001/REC-SVG-20010904/DTD/svg10.dtd">
<svg version="1.0" xmlns="http://www.w3.org/2000/svg"
 width="1020.000000pt" height="1020.000000pt" viewBox="0 0 1020.000000 1020.000000"
 preserveAspectRatio="xMidYMid meet">
<metadata>
Created by potrace 1.11, written by Peter Selinger 2001-2013
</metadata>
<g transform="translate(0.000000,1020.000000) scale(0.100000,-0.100000)"
fill="#000000" stroke="none">
<path d="M3079 8613 c-2 -15 -5 -31 -9 -38 -3 -6 -3 -5 -15 -60 -12 -55 -10
-51 -34 -140 -12 -44 -24 -89 -26 -100 -9 -37 -14 -59 -30 -125 -9 -36 -18
-72 -20 -80 -2 -8 -18 -69 -35 -135 -17 -66 -33 -131 -36 -145 -3 -14 -12 -50
-20 -80 -19 -70 -26 -102 -27 -117 0 -7 -4 -13 -9 -13 -5 0 -7 -4 -4 -9 4 -5
2 -20 -3 -34 -5 -13 -12 -37 -15 -53 -2 -16 -19 -83 -35 -149 -17 -66 -33
-129 -36 -140 -6 -31 -13 -55 -30 -119 -8 -32 -16 -69 -17 -82 -1 -13 -5 -24
-9 -24 -4 0 -10 -21 -15 -47 -4 -27 -9 -55 -10 -63 -2 -8 -14 -54 -28 -102
-13 -49 -22 -88 -20 -88 2 0 -1 -12 -7 -27 -6 -16 -12 -35 -14 -43 -4 -17 -45
-190 -49 -205 -2 -5 -6 -17 -9 -25 -3 -8 -8 -28 -11 -45 -3 -16 -30 -129 -61
-250 -31 -121 -58 -229 -60 -240 -3 -11 -23 -92 -45 -180 -23 -88 -43 -171
-46 -185 -3 -14 -8 -34 -11 -45 -4 -11 -8 -24 -9 -30 -1 -5 -18 -75 -38 -155
-20 -80 -39 -158 -42 -174 -2 -16 -9 -36 -13 -45 -5 -9 -9 -19 -9 -24 0 -7 -6
-32 -17 -82 -2 -11 -18 -71 -34 -132 -16 -62 -27 -113 -24 -113 3 0 1 -6 -5
-12 -5 -7 -12 -29 -15 -48 -3 -19 -77 -314 -163 -655 -86 -341 -159 -632 -161
-646 l-5 -25 668 0 668 1 38 155 c21 85 43 171 48 190 13 46 142 570 144 584
1 6 5 17 9 24 5 6 6 12 3 12 -3 0 -1 11 4 26 6 14 12 37 15 52 9 49 13 66 30
132 10 36 18 71 18 78 0 6 4 12 9 12 5 0 7 4 4 8 -3 5 2 35 11 68 8 32 16 66
18 74 2 8 11 44 20 80 9 36 19 73 21 83 2 9 6 25 9 35 18 67 26 100 30 117 2
11 9 40 15 65 7 25 13 52 15 60 2 8 13 53 25 100 24 92 29 112 36 150 3 14 10
41 16 60 7 19 13 43 14 53 1 9 2 18 3 20 2 1 4 11 7 22 2 11 26 108 52 215 37
146 50 188 56 170 15 -53 36 -129 40 -152 3 -12 12 -52 21 -88 18 -72 18 -70
40 -155 8 -33 18 -71 21 -85 3 -14 10 -43 16 -65 6 -22 14 -56 19 -75 4 -19
13 -53 18 -75 6 -22 15 -58 20 -80 5 -22 28 -114 51 -205 23 -91 43 -172 45
-180 2 -8 17 -69 34 -135 18 -66 34 -130 37 -142 9 -46 74 -309 84 -343 6 -19
17 -62 24 -95 8 -33 24 -98 36 -145 12 -47 23 -92 25 -100 1 -8 9 -35 16 -60
6 -25 13 -52 15 -60 1 -8 12 -51 23 -95 10 -44 27 -109 35 -145 9 -36 21 -79
26 -96 6 -17 10 -37 10 -46 0 -9 6 -18 13 -20 6 -3 210 -5 452 -4 l439 1 43
170 c24 94 46 181 49 195 2 14 9 39 14 55 5 17 12 44 15 60 3 17 7 35 9 40 1
6 8 28 14 50 6 22 13 51 16 65 2 14 16 70 30 125 31 119 31 125 6 217 -10 40
-21 84 -24 98 -3 14 -23 97 -46 185 -23 88 -43 167 -45 175 -1 8 -17 69 -33
135 -17 66 -33 131 -36 145 -3 14 -15 61 -26 105 -11 44 -23 91 -26 105 -2 14
-9 36 -14 50 -5 14 -11 36 -13 50 -2 14 -6 32 -9 40 -3 8 -13 47 -23 85 -9 39
-25 106 -36 150 -11 44 -22 91 -25 105 -2 14 -9 36 -13 50 -5 14 -19 68 -31
120 -12 52 -25 109 -30 125 -20 69 -36 132 -46 185 -3 14 -9 39 -14 55 -11 39
-38 145 -56 220 -4 17 -8 35 -10 40 -1 6 -10 39 -19 75 -9 36 -21 83 -26 105
-6 22 -13 48 -15 58 -2 9 -6 26 -9 37 -3 11 -7 28 -9 38 -21 87 -29 119 -33
132 -4 8 -8 26 -10 40 -2 14 -8 36 -13 50 -8 22 -15 50 -24 100 -2 8 -6 22 -9
30 -6 17 -28 111 -28 122 0 4 -6 26 -14 48 -8 22 -12 40 -8 40 3 0 0 6 -6 13
-6 8 -8 17 -5 20 3 3 2 12 -2 19 -5 7 -9 19 -11 27 -4 27 -25 116 -30 131 -10
24 -27 105 -22 105 1 0 -3 10 -9 21 -6 12 -14 36 -17 55 -3 19 -13 61 -22 94
-8 33 -17 70 -19 82 -2 12 -9 34 -14 49 -6 14 -8 30 -4 35 3 5 0 9 -6 9 -6 0
-8 5 -5 10 3 6 3 16 -2 23 -4 6 -8 18 -9 25 -4 26 -27 118 -35 142 -5 14 -11
36 -13 50 -12 62 -74 303 -86 336 l-8 21 -666 0 c-546 0 -666 -3 -667 -14z"/>
<path d="M5766 8583 c7 -24 11 -43 8 -43 -3 0 0 -8 5 -17 5 -10 11 -31 14 -48
3 -16 31 -129 62 -250 30 -121 57 -229 60 -240 2 -11 13 -56 25 -100 11 -44
23 -89 25 -100 3 -11 12 -49 21 -84 9 -36 17 -73 19 -83 2 -10 6 -22 10 -27 3
-5 7 -22 9 -38 2 -15 11 -56 21 -90 18 -69 25 -100 30 -123 1 -8 5 -22 8 -30
11 -32 107 -426 107 -442 0 -10 4 -18 10 -18 9 0 24 44 34 100 2 14 5 27 6 30
1 3 3 10 5 15 1 6 3 12 4 15 2 3 4 12 6 20 1 8 37 155 80 325 92 371 86 344
92 375 2 14 7 32 10 40 3 8 7 20 8 25 2 6 10 39 19 75 9 36 19 76 22 88 11 50
73 299 83 330 5 18 10 33 9 35 -1 13 17 85 25 95 5 6 7 12 4 12 -3 0 -1 15 3
33 33 129 39 153 40 158 0 3 -202 6 -449 6 l-448 0 13 -44z"/>
<path d="M7077 8615 c-8 -28 -25 -96 -31 -125 -3 -14 -12 -50 -21 -80 -8 -30
-17 -66 -20 -80 -2 -14 -18 -77 -35 -140 -17 -63 -33 -126 -35 -140 -1 -14 -4
-25 -5 -25 -1 0 -3 -7 -5 -15 -2 -8 -22 -87 -44 -175 -23 -88 -43 -169 -45
-180 -2 -11 -20 -85 -41 -165 -20 -80 -38 -152 -40 -160 -2 -8 -20 -80 -40
-160 -20 -80 -38 -152 -40 -160 -2 -8 -8 -35 -15 -60 -7 -25 -14 -53 -16 -62
-7 -30 -12 -50 -29 -115 -9 -35 -18 -71 -20 -80 -1 -10 -8 -38 -15 -63 -7 -25
-13 -49 -14 -55 -1 -5 -5 -19 -9 -30 -3 -11 -8 -31 -11 -45 -9 -43 -13 -61
-55 -223 -22 -87 -43 -168 -46 -180 -2 -12 -11 -48 -18 -79 -8 -32 -13 -59
-10 -61 3 -4 29 -97 38 -137 2 -8 20 -80 40 -160 20 -80 39 -156 42 -170 9
-45 11 -55 13 -55 1 0 3 -7 5 -15 1 -8 15 -62 30 -120 15 -58 29 -116 31 -130
3 -14 8 -34 11 -45 4 -11 7 -22 8 -25 1 -3 4 -18 8 -35 4 -16 10 -40 12 -52 3
-13 7 -31 10 -40 11 -43 77 -300 82 -323 3 -14 6 -33 7 -42 0 -10 4 -18 8 -18
4 0 7 -8 6 -17 0 -10 27 -125 61 -256 33 -131 63 -248 66 -260 2 -12 9 -40 15
-62 6 -22 12 -47 14 -55 84 -343 161 -646 164 -650 2 -3 303 -5 668 -6 597 0
664 1 664 15 0 9 -21 95 -46 191 -24 96 -47 186 -49 200 -2 14 -9 41 -15 60
-6 19 -13 46 -16 60 -3 14 -19 79 -35 145 -17 66 -32 127 -34 135 -2 8 -23 89
-45 180 -23 91 -43 172 -45 180 -2 8 -18 69 -35 135 -17 66 -32 132 -35 147
-2 14 -8 36 -15 47 -6 12 -9 21 -6 21 3 0 -1 21 -9 48 -8 26 -16 58 -18 72 -3
14 -12 50 -21 80 -8 30 -17 66 -20 80 -2 14 -14 63 -26 109 -12 47 -23 90 -24
95 -1 6 -5 17 -10 24 -4 7 -6 16 -3 19 3 3 0 22 -8 42 -11 29 -21 73 -29 121
-1 3 -6 23 -13 45 -28 94 -42 159 -37 166 3 5 0 9 -6 9 -7 0 -10 6 -7 14 3 7
0 19 -6 25 -6 6 -8 11 -5 11 3 0 0 24 -8 53 -8 28 -17 63 -20 77 -8 36 -10 43
-17 60 -5 14 -14 54 -21 95 -2 11 -11 44 -20 74 -8 29 -13 57 -10 62 3 5 0 9
-5 9 -6 0 -11 10 -11 23 0 12 -7 44 -15 71 -8 26 -12 52 -9 57 3 5 0 9 -6 9
-7 0 -10 7 -7 15 4 8 2 17 -3 20 -5 3 -8 13 -8 23 1 9 -5 37 -13 62 -7 25 -14
50 -14 55 -1 13 -35 145 -43 165 -3 8 -5 18 -4 21 0 3 -5 27 -13 54 -8 26 -12
51 -9 56 3 5 0 9 -5 9 -6 0 -11 9 -11 20 0 10 -7 45 -16 77 -9 32 -18 71 -20
86 -2 16 -6 33 -9 38 -4 5 -8 17 -10 27 -1 9 -8 35 -13 57 -6 22 -13 51 -16
65 -5 21 -41 164 -50 195 -2 6 -6 28 -11 50 -4 22 -10 44 -13 50 -3 5 -7 16
-8 25 -1 8 -16 71 -33 140 -18 69 -34 134 -36 145 -2 11 -4 21 -6 23 -2 3 -4
10 -14 57 -11 50 -10 47 -18 65 -4 8 -8 26 -10 40 -2 14 -7 32 -10 40 -3 8
-11 40 -17 70 -7 30 -16 69 -20 85 -5 17 -13 48 -19 70 -5 22 -20 78 -31 124
-12 47 -24 96 -26 110 -3 14 -8 35 -11 46 -4 11 -8 25 -9 30 -16 60 -21 70
-27 50z"/>
<path d="M4563 2557 c-20 -4 -45 -15 -54 -23 -10 -9 -46 -80 -80 -157 -34 -78
-73 -167 -86 -197 -14 -30 -30 -68 -38 -85 -7 -16 -25 -57 -40 -90 -15 -33
-28 -66 -28 -72 0 -7 -4 -13 -9 -13 -4 0 -8 -4 -8 -10 0 -5 -8 -28 -17 -50
-12 -27 -23 -38 -35 -36 -27 4 -32 12 -78 121 -24 55 -53 123 -65 150 -13 28
-37 84 -55 125 -91 211 -136 304 -154 320 -21 17 -229 23 -283 8 -68 -18 -68
-20 -66 -433 2 -483 1 -462 27 -467 35 -7 155 -2 163 6 4 4 8 166 8 361 0 195
3 356 6 360 12 11 35 -6 48 -38 8 -17 27 -61 44 -97 34 -76 152 -339 175 -390
9 -19 16 -37 17 -40 4 -21 51 -95 75 -120 28 -29 36 -31 111 -35 157 -7 164 0
278 248 15 34 42 93 60 130 17 37 31 70 31 72 0 3 13 33 29 67 102 221 97 213
119 199 9 -5 12 -101 14 -362 l3 -354 87 -3 c76 -2 87 -1 91 15 11 38 4 798
-7 833 -7 22 -22 40 -40 49 -32 15 -184 21 -243 8z"/>
<path d="M680 2550 c-13 -3 -33 -18 -44 -33 -20 -28 -21 -37 -19 -385 1 -304
4 -415 12 -478 2 -15 168 -17 177 -2 4 6 8 169 8 361 1 260 4 351 13 354 9 3
34 -26 38 -47 1 -3 15 -34 32 -70 16 -36 42 -92 57 -125 15 -33 43 -93 62
-133 19 -39 34 -75 34 -78 0 -23 104 -215 129 -239 31 -28 37 -30 122 -32 99
-2 131 6 161 40 18 20 84 149 88 172 1 6 8 21 15 35 32 58 83 179 77 184 -3 3
-1 6 5 6 6 0 13 10 17 23 7 28 5 24 32 77 12 25 36 76 53 113 23 51 36 68 49
65 16 -3 17 -30 18 -352 1 -283 4 -350 15 -357 23 -15 146 -11 162 5 12 12 14
81 12 418 -1 258 -5 412 -12 428 -19 45 -35 51 -145 52 -155 1 -165 0 -191
-24 -27 -26 -57 -79 -57 -103 0 -8 -4 -15 -8 -15 -6 0 -34 -60 -37 -80 0 -3
-13 -31 -28 -62 -15 -31 -27 -59 -27 -61 0 -3 -10 -26 -22 -53 -12 -27 -23
-51 -23 -54 -1 -6 -34 -79 -46 -102 -5 -10 -9 -24 -9 -32 0 -7 -7 -19 -15 -26
-9 -7 -13 -15 -11 -18 3 -2 -6 -26 -20 -53 -33 -66 -58 -66 -85 -1 -12 26 -29
66 -40 89 -10 24 -19 45 -19 48 0 3 -13 33 -29 67 -25 57 -80 183 -149 343
-32 74 -57 112 -84 126 -22 12 -227 19 -268 9z"/>
<path d="M2455 2549 c-67 -9 -86 -14 -137 -38 -121 -56 -148 -134 -147 -424 1
-247 18 -310 99 -379 69 -60 90 -63 449 -64 408 -2 452 7 534 108 15 19 29 42
30 49 2 8 7 21 12 29 12 18 15 288 4 311 -4 8 -4 20 0 27 4 6 4 45 0 87 -17
171 -73 247 -209 285 -48 14 -542 20 -635 9z m490 -169 c6 -1 18 -1 28 0 28 2
83 -19 102 -39 23 -27 28 -65 29 -237 0 -183 -13 -232 -72 -260 -33 -16 -68
-18 -302 -18 -257 0 -266 1 -302 23 -53 32 -61 67 -61 251 1 237 23 275 164
279 41 1 74 3 75 4 3 3 326 -1 339 -3z"/>
<path d="M5295 2548 c-134 -18 -199 -57 -244 -146 -28 -55 -34 -109 -33 -308
0 -238 14 -302 77 -371 41 -44 141 -80 218 -78 15 1 27 -3 27 -8 0 -4 5 -5 10
-2 6 4 150 7 320 7 l310 -1 1 22 c3 75 1 148 -4 153 -3 3 -151 6 -329 6 -177
1 -337 5 -354 10 -30 8 -65 46 -71 78 -2 8 -6 36 -10 63 -5 42 -4 47 13 48 10
0 181 0 379 1 253 0 362 4 367 12 12 18 9 134 -4 142 -6 4 -180 7 -386 7
l-374 -1 6 53 c8 73 23 101 65 121 32 15 76 17 363 18 179 1 330 4 334 8 9 9
9 156 0 165 -9 9 -617 10 -681 1z"/>
<path d="M6202 2544 c-56 -23 -56 -23 -58 -469 -1 -225 1 -415 3 -421 4 -12
10 -13 86 -14 60 0 83 3 94 14 4 4 9 161 9 349 1 188 2 347 3 353 3 26 34 7
74 -45 23 -31 44 -58 47 -61 3 -3 48 -61 100 -130 52 -69 98 -129 102 -135 5
-5 27 -35 50 -65 24 -30 47 -60 53 -67 5 -7 39 -50 75 -97 36 -46 76 -90 89
-98 15 -8 62 -13 136 -13 99 0 117 3 141 20 15 12 29 30 32 40 2 11 5 204 6
428 1 373 0 410 -15 418 -16 8 -142 10 -165 2 -8 -3 -12 -104 -12 -355 0 -194
-4 -354 -9 -359 -15 -15 -39 13 -223 256 -200 265 -230 304 -248 324 -7 7 -21
26 -30 40 -32 50 -65 80 -96 90 -45 13 -208 10 -244 -5z"/>
<path d="M7370 2545 c-5 -6 -7 -25 -6 -43 1 -18 -1 -35 -6 -38 -4 -3 -4 -13 2
-23 5 -10 7 -21 4 -24 -3 -3 -3 -15 1 -26 6 -20 13 -21 220 -21 l213 0 5 -27
c3 -16 2 -32 -2 -38 -6 -9 -6 -25 -1 -50 2 -13 2 -207 0 -220 -1 -5 -1 -12 0
-15 6 -16 6 -68 -1 -86 -4 -12 -5 -24 -2 -28 8 -8 11 -76 3 -81 -6 -4 -6 -40
0 -55 1 -3 2 -24 1 -48 -2 -75 8 -83 97 -81 97 2 109 8 105 51 -2 18 -4 39 -3
46 0 6 0 32 0 57 0 25 0 52 0 60 0 8 0 35 0 60 0 25 0 52 0 60 0 8 0 35 0 60
0 25 0 51 0 58 0 6 1 40 2 74 2 33 0 59 -4 56 -5 -2 -4 6 0 19 4 13 7 47 6 76
l-2 52 213 0 c161 0 214 3 218 13 10 26 5 157 -6 164 -19 12 -1047 10 -1057
-2z"/>
<path d="M8858 2548 c-33 -7 -98 -69 -98 -94 0 -8 -4 -14 -10 -14 -5 0 -10 -9
-10 -20 0 -11 -4 -20 -10 -20 -5 0 -10 -5 -10 -11 0 -7 -13 -34 -30 -60 -16
-27 -26 -49 -22 -49 4 0 2 -4 -4 -8 -9 -6 -53 -84 -128 -227 -12 -22 -23 -42
-26 -45 -3 -3 -16 -27 -30 -55 -14 -27 -27 -52 -30 -55 -3 -3 -15 -25 -28 -50
-13 -25 -41 -78 -63 -117 -22 -40 -38 -77 -35 -82 3 -4 51 -8 105 -7 113 1
111 0 153 91 45 97 18 90 364 91 l305 1 39 -71 c63 -115 56 -109 151 -111 99
-1 119 6 111 37 -3 13 -8 25 -11 28 -4 3 -18 28 -31 55 -14 28 -27 52 -30 55
-3 3 -12 19 -20 35 -14 27 -55 102 -111 202 -12 21 -34 61 -49 88 -15 28 -36
66 -47 85 -11 19 -39 71 -63 115 -63 116 -64 118 -75 131 -5 6 -17 21 -25 34
-8 12 -28 29 -45 37 -31 17 -131 23 -187 11z m113 -196 c9 -10 28 -43 43 -73
15 -30 52 -99 82 -154 30 -55 57 -108 61 -117 3 -10 10 -18 15 -18 5 0 6 -4 3
-10 -7 -11 -455 -15 -455 -4 0 4 23 50 51 103 29 53 70 130 92 171 70 132 77
138 108 102z"/>
</g>
</svg>
